<?xml version="1.0" encoding="UTF-8"?>
<!DOCTYPE svg PUBLIC "-//W3C//DTD SVG 1.1//EN" "http://www.w3.org/Graphics/SVG/1.1/DTD/svg11.dtd">
<svg xmlns="http://www.w3.org/2000/svg" version="1.1" width="512px" height="512px"
     style="shape-rendering:geometricPrecision; text-rendering:geometricPrecision; image-rendering:optimizeQuality; fill-rule:evenodd; clip-rule:evenodd"
>
    <g>
        <path style="opacity:1" fill="#030202"
              d="M 97.5,-0.5 C 216.167,-0.5 334.833,-0.5 453.5,-0.5C 453.5,4.83333 453.5,10.1667 453.5,15.5C 448.833,15.5 444.167,15.5 439.5,15.5C 439.5,135.833 439.5,256.167 439.5,376.5C 434.167,376.5 428.833,376.5 423.5,376.5C 423.5,256.167 423.5,135.833 423.5,15.5C 332.167,15.5 240.833,15.5 149.5,15.5C 149.5,135.833 149.5,256.167 149.5,376.5C 144.5,376.5 139.5,376.5 134.5,376.5C 134.5,256.167 134.5,135.833 134.5,15.5C 121.759,15.0589 109.092,15.5589 96.5,17C 86.061,21.3816 78.8944,28.8816 75,39.5C 73.8405,101.956 73.3405,164.456 73.5,227C 73.8333,288.167 74.1667,349.333 74.5,410.5C 80.824,404.837 88.1574,401.004 96.5,399C 108.798,397.716 121.131,397.216 133.5,397.5C 235.5,397.5 337.5,397.5 439.5,397.5C 442.833,397.5 446.167,397.5 449.5,397.5C 449.5,402.5 449.5,407.5 449.5,412.5C 438.833,412.5 428.167,412.5 417.5,412.5C 417.5,435.5 417.5,458.5 417.5,481.5C 428.167,481.5 438.833,481.5 449.5,481.5C 449.5,486.5 449.5,491.5 449.5,496.5C 378.331,496.167 307.331,496.501 236.5,497.5C 236.5,502.167 236.5,506.833 236.5,511.5C 235.833,511.5 235.167,511.5 234.5,511.5C 221.231,503.192 207.898,494.858 194.5,486.5C 181.102,494.858 167.769,503.192 154.5,511.5C 153.833,511.5 153.167,511.5 152.5,511.5C 152.5,506.833 152.5,502.167 152.5,497.5C 135.497,497.667 118.497,497.5 101.5,497C 77,492.5 62.5,478 58,453.5C 57.3333,316.5 57.3333,179.5 58,42.5C 62.5333,20.0153 75.7,5.68193 97.5,-0.5 Z"/>
    </g>
    <g>
        <path style="opacity:1" fill="#68553c"
              d="M 134.5,376.5 C 133.509,383.313 133.175,390.313 133.5,397.5C 121.131,397.216 108.798,397.716 96.5,399C 88.1574,401.004 80.824,404.837 74.5,410.5C 74.1667,349.333 73.8333,288.167 73.5,227C 73.3405,164.456 73.8405,101.956 75,39.5C 78.8944,28.8816 86.061,21.3816 96.5,17C 109.092,15.5589 121.759,15.0589 134.5,15.5C 134.5,135.833 134.5,256.167 134.5,376.5 Z"/>
    </g>
    <g>
        <path style="opacity:1" fill="#9f805b"
              d="M 439.5,376.5 C 439.5,383.5 439.5,390.5 439.5,397.5C 337.5,397.5 235.5,397.5 133.5,397.5C 133.175,390.313 133.509,383.313 134.5,376.5C 139.5,376.5 144.5,376.5 149.5,376.5C 149.5,256.167 149.5,135.833 149.5,15.5C 240.833,15.5 332.167,15.5 423.5,15.5C 423.5,135.833 423.5,256.167 423.5,376.5C 428.833,376.5 434.167,376.5 439.5,376.5 Z"/>
    </g>
    <g>
        <path style="opacity:1" fill="#030201"
              d="M 404.5,35.5 C 404.5,46.5 404.5,57.5 404.5,68.5C 399.5,68.5 394.5,68.5 389.5,68.5C 389.822,62.642 389.489,56.9753 388.5,51.5C 321.167,51.5 253.833,51.5 186.5,51.5C 185.51,57.31 185.177,63.31 185.5,69.5C 180.5,69.5 175.5,69.5 170.5,69.5C 170.5,58.1667 170.5,46.8333 170.5,35.5C 248.5,35.5 326.5,35.5 404.5,35.5 Z"/>
    </g>
    <g>
        <path style="opacity:1" fill="#6a5737"
              d="M 404.5,35.5 C 405.495,46.6544 405.828,57.9877 405.5,69.5C 400.167,69.5 394.833,69.5 389.5,69.5C 388.51,63.69 388.177,57.69 388.5,51.5C 389.489,56.9753 389.822,62.642 389.5,68.5C 394.5,68.5 399.5,68.5 404.5,68.5C 404.5,57.5 404.5,46.5 404.5,35.5 Z"/>
    </g>
    <g>
        <path style="opacity:1" fill="#fed943"
              d="M 186.5,51.5 C 253.833,51.5 321.167,51.5 388.5,51.5C 388.177,57.69 388.51,63.69 389.5,69.5C 389.5,79.8333 389.5,90.1667 389.5,100.5C 388.501,186.998 388.167,273.665 388.5,360.5C 321.167,360.5 253.833,360.5 186.5,360.5C 186.5,274.167 186.5,187.833 186.5,101.5C 186.5,91.1667 186.5,80.8333 186.5,70.5C 186.5,64.1667 186.5,57.8333 186.5,51.5 Z"/>
    </g>
    <g>
        <path style="opacity:1" fill="#33291b"
              d="M 186.5,51.5 C 186.5,57.8333 186.5,64.1667 186.5,70.5C 180.974,70.8214 175.64,70.4881 170.5,69.5C 175.5,69.5 180.5,69.5 185.5,69.5C 185.177,63.31 185.51,57.31 186.5,51.5 Z"/>
    </g>
    <g>
        <path style="opacity:1" fill="#050504"
              d="M 312.5,76.5 C 317.544,76.1725 322.544,76.5059 327.5,77.5C 330.944,87.9184 336.944,96.4184 345.5,103C 350.5,105.5 355.5,108 360.5,110.5C 361.833,115.5 361.833,120.5 360.5,125.5C 343.833,130.833 332.833,141.833 327.5,158.5C 322.533,159.662 317.533,159.829 312.5,159C 308.722,147.742 302.055,138.742 292.5,132C 288.046,129.689 283.546,127.522 279,125.5C 278.333,120.5 278.333,115.5 279,110.5C 296.057,104.943 307.224,93.6098 312.5,76.5 Z"/>
    </g>
    <g>
        <path style="opacity:1" fill="#f9f9f9"
              d="M 318.5,98.5 C 320.017,98.5106 321.184,99.1772 322,100.5C 326.5,107.667 332.333,113.5 339.5,118C 331.667,123.167 325.167,129.667 320,137.5C 314.786,129.285 307.952,122.785 299.5,118C 308.071,113.596 314.405,107.096 318.5,98.5 Z"/>
    </g>
    <g>
        <path style="opacity:1" fill="#010100"
              d="M 389.5,100.5 C 394.5,100.5 399.5,100.5 404.5,100.5C 404.5,192.5 404.5,284.5 404.5,376.5C 326.5,376.5 248.5,376.5 170.5,376.5C 170.5,284.833 170.5,193.167 170.5,101.5C 175.833,101.5 181.167,101.5 186.5,101.5C 186.5,187.833 186.5,274.167 186.5,360.5C 253.998,361.499 321.665,361.833 389.5,361.5C 389.5,274.5 389.5,187.5 389.5,100.5 Z"/>
    </g>
    <g>
        <path style="opacity:1" fill="#050404"
              d="M 234.5,108.5 C 239.875,108.172 245.208,108.505 250.5,109.5C 254.167,120.5 261.5,127.833 272.5,131.5C 273.662,136.467 273.829,141.467 273,146.5C 268.419,148.873 263.919,151.373 259.5,154C 255.416,158.829 252.083,164.162 249.5,170C 244.467,170.829 239.467,170.662 234.5,169.5C 231.039,157.705 223.372,150.371 211.5,147.5C 211.172,142.125 211.505,136.792 212.5,131.5C 223.949,127.719 231.282,120.052 234.5,108.5 Z"/>
    </g>
    <g>
        <path style="opacity:1" fill="#f6f6f6"
              d="M 241.5,129.5 C 245.147,132.72 248.813,136.053 252.5,139.5C 248.833,142.5 245.5,145.833 242.5,149.5C 239.5,145.833 236.167,142.5 232.5,139.5C 235.522,136.147 238.522,132.813 241.5,129.5 Z"/>
    </g>
    <g>
        <path style="opacity:1" fill="#060605"
              d="M 280.5,152.5 C 285.511,152.334 290.511,152.501 295.5,153C 297.673,158.504 300.673,163.504 304.5,168C 308.721,171.278 313.388,173.778 318.5,175.5C 319.662,180.467 319.829,185.467 319,190.5C 307.393,194.273 299.56,201.94 295.5,213.5C 290.5,214.833 285.5,214.833 280.5,213.5C 276.44,201.94 268.607,194.273 257,190.5C 256.171,185.467 256.338,180.467 257.5,175.5C 262.612,173.778 267.279,171.278 271.5,168C 275.143,163.215 278.143,158.049 280.5,152.5 Z"/>
    </g>
    <g>
        <path style="opacity:1" fill="#f5f5f5"
              d="M 287.5,172.5 C 290.639,176.47 294.305,179.97 298.5,183C 295,186.5 291.5,190 288,193.5C 284.651,189.984 281.151,186.651 277.5,183.5C 281.537,180.463 284.871,176.797 287.5,172.5 Z"/>
    </g>
    <g>
        <path style="opacity:1" fill="#040301"
              d="M 221.5,275.5 C 230.167,275.5 238.833,275.5 247.5,275.5C 247.5,280.5 247.5,285.5 247.5,290.5C 238.833,290.5 230.167,290.5 221.5,290.5C 221.5,285.5 221.5,280.5 221.5,275.5 Z"/>
    </g>
    <g>
        <path style="opacity:1" fill="#000000"
              d="M 258.5,275.5 C 289.833,275.5 321.167,275.5 352.5,275.5C 352.5,280.5 352.5,285.5 352.5,290.5C 321.167,290.5 289.833,290.5 258.5,290.5C 258.5,285.5 258.5,280.5 258.5,275.5 Z"/>
    </g>
    <g>
        <path style="opacity:1" fill="#000000"
              d="M 339.5,301.5 C 339.5,306.5 339.5,311.5 339.5,316.5C 304.833,316.5 270.167,316.5 235.5,316.5C 235.5,311.5 235.5,306.5 235.5,301.5C 270.167,301.5 304.833,301.5 339.5,301.5 Z"/>
    </g>
    <g>
        <path style="opacity:1" fill="#796720"
              d="M 339.5,301.5 C 340.488,306.64 340.821,311.974 340.5,317.5C 305.329,317.832 270.329,317.498 235.5,316.5C 270.167,316.5 304.833,316.5 339.5,316.5C 339.5,311.5 339.5,306.5 339.5,301.5 Z"/>
    </g>
    <g>
        <path style="opacity:1" fill="#000000"
              d="M 318.5,327.5 C 318.5,332.5 318.5,337.5 318.5,342.5C 297.833,342.5 277.167,342.5 256.5,342.5C 256.5,337.5 256.5,332.5 256.5,327.5C 277.167,327.5 297.833,327.5 318.5,327.5 Z"/>
    </g>
    <g>
        <path style="opacity:1" fill="#554916"
              d="M 318.5,327.5 C 319.488,332.64 319.821,337.974 319.5,343.5C 298.327,343.831 277.327,343.497 256.5,342.5C 277.167,342.5 297.833,342.5 318.5,342.5C 318.5,337.5 318.5,332.5 318.5,327.5 Z"/>
    </g>
    <g>
        <path style="opacity:1" fill="#6b592a"
              d="M 389.5,100.5 C 389.5,187.5 389.5,274.5 389.5,361.5C 321.665,361.833 253.998,361.499 186.5,360.5C 253.833,360.5 321.167,360.5 388.5,360.5C 388.167,273.665 388.501,186.998 389.5,100.5 Z"/>
    </g>
    <g>
        <path style="opacity:1" fill="#68543b"
              d="M 99.5,413.5 C 103.884,413.174 108.217,413.508 112.5,414.5C 98.207,433.433 96.707,453.433 108,474.5C 109.715,476.759 111.548,478.926 113.5,481C 92.6394,482.154 79.4727,472.654 74,452.5C 72.9866,433.176 81.4866,420.176 99.5,413.5 Z"/>
    </g>
    <g>
        <path style="opacity:1" fill="#fefefe"
              d="M 401.5,413.5 C 401.5,417.5 401.5,421.5 401.5,425.5C 361.996,425.168 322.663,425.501 283.5,426.5C 283.5,431.5 283.5,436.5 283.5,441.5C 322.663,442.499 361.996,442.832 401.5,442.5C 401.5,445.833 401.5,449.167 401.5,452.5C 355.167,452.5 308.833,452.5 262.5,452.5C 262.5,457.833 262.5,463.167 262.5,468.5C 308.833,468.5 355.167,468.5 401.5,468.5C 401.5,472.5 401.5,476.5 401.5,480.5C 346.5,480.5 291.5,480.5 236.5,480.5C 236.5,466.833 236.5,453.167 236.5,439.5C 208.833,439.5 181.167,439.5 153.5,439.5C 152.504,452.99 152.171,466.656 152.5,480.5C 150.167,480.5 147.833,480.5 145.5,480.5C 126.27,476.926 116.27,465.259 115.5,445.5C 117.861,429.263 126.861,418.763 142.5,414C 228.833,413.5 315.166,413.333 401.5,413.5 Z"/>
    </g>
    <g>
        <path style="opacity:1" fill="#8f8e8e"
              d="M 401.5,413.5 C 402.485,417.634 402.818,421.968 402.5,426.5C 362.833,426.5 323.167,426.5 283.5,426.5C 322.663,425.501 361.996,425.168 401.5,425.5C 401.5,421.5 401.5,417.5 401.5,413.5 Z"/>
    </g>
    <g>
        <path style="opacity:1" fill="#7a7a7a"
              d="M 272.5,441.5 C 272.5,436.5 272.5,431.5 272.5,426.5C 264.167,426.5 255.833,426.5 247.5,426.5C 247.5,431.5 247.5,436.5 247.5,441.5C 246.512,436.36 246.179,431.026 246.5,425.5C 255.5,425.5 264.5,425.5 273.5,425.5C 273.821,431.026 273.488,436.36 272.5,441.5 Z"/>
    </g>
    <g>
        <path style="opacity:1" fill="#000000"
              d="M 272.5,441.5 C 264.167,441.5 255.833,441.5 247.5,441.5C 247.5,436.5 247.5,431.5 247.5,426.5C 255.833,426.5 264.167,426.5 272.5,426.5C 272.5,431.5 272.5,436.5 272.5,441.5 Z"/>
    </g>
    <g>
        <path style="opacity:1" fill="#403e3d"
              d="M 153.5,439.5 C 153.5,453.5 153.5,467.5 153.5,481.5C 150.615,481.806 147.948,481.473 145.5,480.5C 147.833,480.5 150.167,480.5 152.5,480.5C 152.171,466.656 152.504,452.99 153.5,439.5 Z"/>
    </g>
    <g>
        <path style="opacity:1" fill="#bbbbba"
              d="M 283.5,441.5 C 323.167,441.5 362.833,441.5 402.5,441.5C 402.815,445.371 402.482,449.038 401.5,452.5C 401.5,449.167 401.5,445.833 401.5,442.5C 361.996,442.832 322.663,442.499 283.5,441.5 Z"/>
    </g>
    <g>
        <path style="opacity:1" fill="#d70227"
              d="M 168.5,455.5 C 185.833,455.5 203.167,455.5 220.5,455.5C 220.832,464.525 220.498,473.525 219.5,482.5C 211.332,477.248 202.999,472.248 194.5,467.5C 186.001,472.248 177.668,477.248 169.5,482.5C 168.502,473.525 168.168,464.525 168.5,455.5 Z"/>
    </g>
    <g>
        <path style="opacity:1" fill="#a59d94"
              d="M 401.5,468.5 C 402.485,472.634 402.818,476.968 402.5,481.5C 346.997,481.832 291.664,481.499 236.5,480.5C 291.5,480.5 346.5,480.5 401.5,480.5C 401.5,476.5 401.5,472.5 401.5,468.5 Z"/>
    </g>
    <g>
        <path style="opacity:0.631" fill="#34291d"
              d="M 449.5,397.5 C 450.488,402.64 450.821,407.974 450.5,413.5C 439.833,413.5 429.167,413.5 418.5,413.5C 418.5,435.833 418.5,458.167 418.5,480.5C 429.167,480.5 439.833,480.5 450.5,480.5C 450.5,486.167 450.5,491.833 450.5,497.5C 379.167,497.5 307.833,497.5 236.5,497.5C 307.331,496.501 378.331,496.167 449.5,496.5C 449.5,491.5 449.5,486.5 449.5,481.5C 438.833,481.5 428.167,481.5 417.5,481.5C 417.5,458.5 417.5,435.5 417.5,412.5C 428.167,412.5 438.833,412.5 449.5,412.5C 449.5,407.5 449.5,402.5 449.5,397.5 Z"/>
    </g>
</svg>
